<svg width="512" height="512" viewBox="0 0 512 512" fill="none" xmlns="http://www.w3.org/2000/svg">
  <!-- Background Circle (Arepa Body) -->
  <circle cx="256" cy="256" r="240" fill="#F4D03F"/>
  
  <!-- Inner Texture (Subtle golden toasted spots for realism/detail) -->
  <circle cx="150" cy="150" r="40" fill="#F1C40F"/>
  <circle cx="360" cy="320" r="50" fill="#F1C40F"/>
  <circle cx="200" cy="380" r="25" fill="#F1C40F"/>
  <circle cx="380" cy="180" r="30" fill="#F1C40F"/>
  
  <!-- Dollar Sign ($) -->
  <!-- Using a path for better portability than text -->
  <path d="M256 110C268.5 110 279.5 112.5 289 117L280 144C273.5 141 266 139.5 258 139.5C240.5 139.5 231 148 231 161.5C231 172.5 240 179 261.5 186.5C288.5 196 306 211.5 306 238.5C306 271.5 281.5 291 247 291C232.5 291 219.5 287.5 209 281.5L218.5 254.5C227.5 259 237 262 247.5 262C267.5 262 277.5 253 277.5 240C277.5 228.5 268 221.5 246.5 214C220.5 204.5 202.5 189 202.5 162.5C202.5 131.5 226 110 256 110ZM248 80V111H263V80H248ZM248 290V320H263V290H248Z" fill="#145A32" transform="scale(1.2) translate(-42, -15)"/>
  
  <!-- Venezuelan Flag Accent (Minimalist ring or detail) -->
  <!-- A subtle arc at the bottom or top -->
</svg>
